<svg width="1024" height="1024" viewBox="0 0 1024 1024" fill="none" xmlns="http://www.w3.org/2000/svg">
<rect x="399" y="367" width="236" height="297" fill="white"/>
<path fill-rule="evenodd" clip-rule="evenodd" d="M425.328 292C375.622 292 326.95 331.414 316.616 380.033L260.943 641.952C250.609 690.572 282.525 729.986 332.231 729.986H600.001C649.706 729.986 698.379 690.572 708.713 641.952L764.386 380.033C774.72 331.414 742.803 292 693.098 292H425.328ZM430.386 379.849C427.002 376.828 422.007 376.467 418.224 378.97C415.429 380.819 413.749 383.947 413.749 387.297V412.029C413.749 412.035 413.749 412.041 413.749 412.047L413.749 413.048V415.741L413.749 612.137C413.749 612.156 413.749 612.174 413.749 612.193V637.639C413.749 640.989 415.43 644.117 418.224 645.966C422.007 648.469 427.002 648.108 430.386 645.087L453.696 624.272L472.034 641.189C475.74 644.608 477.594 646.318 479.697 646.992C481.63 647.612 483.706 647.629 485.649 647.04C487.763 646.4 489.644 644.721 493.405 641.362L512.285 624.503L530.372 641.189C534.078 644.608 535.932 646.318 538.035 646.992C539.968 647.612 542.044 647.629 543.987 647.04C546.101 646.4 547.982 644.721 551.743 641.362L571.003 624.164L594.435 645.087C597.819 648.108 602.814 648.469 606.597 645.966C609.391 644.117 611.072 640.989 611.072 637.639V611.888V609.195C611.072 608.767 611.072 608.355 611.071 607.96V417.122C611.072 416.682 611.072 416.222 611.072 415.741L611.072 413.048V387.297C611.072 383.947 609.391 380.819 606.597 378.97C602.814 376.467 597.819 376.828 594.435 379.849L571.004 400.772L551.743 383.574C547.982 380.215 546.101 378.536 543.987 377.895C542.044 377.307 539.968 377.324 538.035 377.944C535.932 378.618 534.079 380.328 530.372 383.747L512.285 400.433L493.405 383.574C489.644 380.215 487.763 378.536 485.649 377.895C483.706 377.307 481.63 377.324 479.697 377.944C477.593 378.618 475.74 380.328 472.034 383.747L472.034 383.747L453.696 400.664L430.386 379.849Z" fill="#27CE8B"/>
<path d="M436.757 449.177C443.082 439.037 449.406 439.037 455.731 449.177C462.004 459.153 468.328 459.153 474.704 449.177C481.028 439.201 487.353 439.201 493.677 449.177C499.029 456.083 505.353 456.083 512.651 449.177C518.975 442.271 525.299 442.271 531.624 449.177C539.931 460.413 546.255 460.413 550.597 449.177C556.922 437.94 563.246 437.94 569.57 449.177C575.031 457.344 581.355 457.344 588.544 449.177" stroke="#27CE8B" stroke-width="10"/>
<path d="M436.758 490.158C443.082 480.018 449.406 480.018 455.731 490.158C462.004 500.134 468.328 500.134 474.704 490.158C481.029 480.182 487.353 480.182 493.677 490.158C499.029 497.064 505.353 497.064 512.651 490.158C518.975 483.251 525.3 483.251 531.624 490.158C539.931 501.394 546.256 501.394 550.597 490.158C556.922 478.921 563.246 478.921 569.571 490.158C575.031 498.325 581.356 498.325 588.544 490.158" stroke="#27CE8B" stroke-width="10"/>
<path d="M436.758 531.138C443.082 520.998 449.406 520.998 455.731 531.138C462.004 541.114 468.328 541.114 474.704 531.138C481.029 521.163 487.353 521.163 493.677 531.138C499.029 538.045 505.353 538.045 512.651 531.138C518.975 524.232 525.3 524.232 531.624 531.138C539.931 542.375 546.256 542.375 550.597 531.138C556.922 519.902 563.246 519.902 569.571 531.138C575.031 539.305 581.356 539.305 588.544 531.138" stroke="#27CE8B" stroke-width="10"/>
<path d="M436.758 572.123C443.082 561.982 449.406 561.982 455.731 572.123C462.004 582.098 468.328 582.098 474.704 572.123C481.029 562.147 487.353 562.147 493.677 572.123C499.029 579.029 505.353 579.029 512.651 572.123C518.975 565.216 525.3 565.216 531.624 572.123C539.931 583.359 546.256 583.359 550.597 572.123C556.922 560.886 563.246 560.886 569.571 572.123C575.031 580.29 581.356 580.29 588.544 572.123" stroke="#27CE8B" stroke-width="10"/>
</svg>
