<svg width="1024" height="1024" viewBox="0 0 1024 1024" fill="none" xmlns="http://www.w3.org/2000/svg">
<path d="M442.956 454.059C448.834 444.636 454.711 444.636 460.589 454.059C466.419 463.329 472.296 463.329 478.222 454.059C484.099 444.788 489.977 444.788 495.855 454.059C500.828 460.476 506.706 460.476 513.487 454.059C519.365 447.641 525.243 447.641 531.12 454.059C538.84 464.5 544.718 464.5 548.753 454.059C554.631 443.617 560.508 443.617 566.386 454.059C571.461 461.648 577.338 461.648 584.019 454.059M442.956 492.142C448.834 482.719 454.711 482.719 460.589 492.142C466.419 501.412 472.296 501.412 478.222 492.142C484.099 482.872 489.977 482.872 495.855 492.142C500.828 498.559 506.706 498.559 513.487 492.142C519.365 485.724 525.243 485.724 531.12 492.142C538.84 502.583 544.718 502.583 548.753 492.142C554.631 481.7 560.508 481.7 566.386 492.142C571.461 499.731 577.338 499.731 584.019 492.142M442.956 530.225C448.834 520.802 454.711 520.802 460.589 530.225C466.419 539.495 472.296 539.495 478.222 530.225C484.099 520.955 489.977 520.955 495.855 530.225C500.828 536.642 506.706 536.642 513.487 530.225C519.365 523.807 525.243 523.807 531.12 530.225C538.84 540.666 544.718 540.666 548.753 530.225C554.631 519.783 560.508 519.783 566.386 530.225C571.461 537.814 577.338 537.814 584.019 530.225M442.956 568.308C448.834 558.885 454.711 558.885 460.589 568.308C466.419 577.578 472.296 577.578 478.222 568.308C484.099 559.038 489.977 559.038 495.855 568.308C500.828 574.725 506.706 574.725 513.487 568.308C519.365 561.89 525.243 561.89 531.12 568.308C538.84 578.749 544.718 578.749 548.753 568.308C554.631 557.866 560.508 557.866 566.386 568.308C571.461 575.897 577.338 575.897 584.019 568.308M335.494 370.085C342.783 335.796 377.112 308 412.17 308H701.349C736.407 308 758.919 335.796 751.63 370.085L691.506 652.915C684.217 687.204 649.888 715 614.83 715H325.651C290.593 715 268.082 687.204 275.37 652.915L335.494 370.085ZM425.732 388.819C424.761 389.462 424.275 389.783 423.869 390.154C422.687 391.235 421.907 392.685 421.659 394.267C421.574 394.811 421.574 395.393 421.574 396.558V417.3C421.574 417.304 421.574 417.308 421.574 417.312V607.728C421.574 607.732 421.574 607.736 421.574 607.74V629.188C421.574 630.352 421.574 630.935 421.659 631.478C421.907 633.06 422.687 634.511 423.869 635.591C424.275 635.962 424.761 636.284 425.732 636.926C427.095 637.828 427.776 638.279 428.458 638.549C430.457 639.341 432.707 639.178 434.57 638.107C435.207 637.742 435.816 637.198 437.035 636.109L458.699 616.767L478.117 634.678C480.731 637.09 482.038 638.296 483.522 638.771C484.885 639.208 486.349 639.22 487.72 638.805C489.211 638.354 490.537 637.169 493.19 634.801L513.148 616.981L532.333 634.678C534.948 637.09 536.255 638.296 537.738 638.771C539.102 639.208 540.566 639.22 541.936 638.805C543.428 638.354 544.754 637.169 547.407 634.801L567.718 616.667L589.494 636.109C590.713 637.198 591.322 637.742 591.958 638.107C593.822 639.178 596.072 639.341 598.07 638.549C598.753 638.279 599.434 637.828 600.797 636.926C601.768 636.284 602.253 635.962 602.66 635.591C603.842 634.511 604.622 633.06 604.87 631.478C604.955 630.935 604.955 630.352 604.955 629.188V396.558C604.955 395.393 604.955 394.811 604.87 394.267C604.622 392.685 603.842 391.235 602.66 390.154C602.253 389.783 601.768 389.462 600.797 388.819C599.434 387.918 598.753 387.467 598.07 387.196C596.072 386.405 593.822 386.567 591.958 387.638C591.322 388.004 590.713 388.548 589.494 389.636L567.718 409.079L547.407 390.945C544.754 388.576 543.428 387.392 541.936 386.94C540.566 386.525 539.102 386.537 537.738 386.974C536.255 387.45 534.948 388.656 532.333 391.067L513.148 408.764L493.19 390.945C490.537 388.576 489.211 387.392 487.72 386.94C486.349 386.525 484.885 386.537 483.522 386.974C482.038 387.45 480.731 388.656 478.117 391.067L458.699 408.979L437.035 389.636C435.816 388.548 435.207 388.004 434.57 387.638C432.707 386.567 430.457 386.405 428.458 387.196C427.776 387.467 427.095 387.918 425.732 388.819Z" stroke="white" stroke-width="10"/>
</svg>
