<svg width="680" height="578" viewBox="0 0 680 578" fill="none" xmlns="http://www.w3.org/2000/svg">
    <path fill-rule="evenodd" clip-rule="evenodd" d="M195.899 0C146.193 0 97.5213 39.4138 87.1869 88.0333L1.9431 489.074C-8.39128 537.693 23.5254 577.107 73.231 577.107H483.231C532.937 577.107 581.609 537.693 591.943 489.074L677.187 88.0333C687.521 39.4138 655.605 0 605.899 0H195.899ZM215.127 114.598L215.127 114.598L215.127 114.598C213.75 115.509 213.062 115.965 212.486 116.491C210.809 118.023 209.704 120.08 209.352 122.323C209.231 123.094 209.231 123.919 209.231 125.57V154.982C209.231 154.988 209.231 154.994 209.231 155L209.231 159.5V168.1V168.1V412.9V412.9V421.5L209.231 425C209.231 425.006 209.231 425.012 209.231 425.018V455.43C209.231 457.081 209.231 457.906 209.352 458.677C209.704 460.92 210.809 462.977 212.486 464.509C213.062 465.035 213.75 465.491 215.127 466.402C217.059 467.681 218.025 468.32 218.992 468.703C221.825 469.826 225.016 469.595 227.658 468.077C228.56 467.558 229.424 466.787 231.152 465.244L261.868 437.817L289.398 463.215C293.105 466.634 294.958 468.344 297.061 469.018C298.995 469.638 301.07 469.655 303.013 469.066C305.128 468.426 307.008 466.747 310.77 463.388L339.066 438.121L366.267 463.215C369.974 466.634 371.827 468.344 373.93 469.018C375.863 469.638 377.939 469.655 379.882 469.066C381.996 468.426 383.877 466.747 387.639 463.388L416.435 437.675L447.31 465.244C449.038 466.787 449.902 467.558 450.804 468.077C453.446 469.595 456.636 469.826 459.47 468.703C460.437 468.32 461.403 467.681 463.335 466.402C464.712 465.491 465.4 465.035 465.976 464.509C467.653 462.977 468.758 460.92 469.11 458.677C469.231 457.906 469.231 457.081 469.231 455.43V425V421.5V412.9V168.1V159.5V155V125.57C469.231 123.919 469.231 123.094 469.11 122.323C468.758 120.08 467.653 118.023 465.976 116.491C465.4 115.965 464.712 115.509 463.335 114.598C461.403 113.32 460.437 112.68 459.47 112.297C456.636 111.174 453.446 111.405 450.804 112.923C449.902 113.442 449.038 114.213 447.31 115.756L416.435 143.325L387.639 117.612C383.877 114.253 381.996 112.574 379.882 111.934C377.939 111.345 375.863 111.362 373.93 111.982C371.827 112.656 369.974 114.366 366.267 117.785L339.066 142.879L310.77 117.612C307.008 114.253 305.128 112.574 303.013 111.934C301.07 111.345 298.995 111.362 297.061 111.982C294.958 112.656 293.105 114.366 289.398 117.785L261.868 143.183L231.152 115.756C229.424 114.213 228.56 113.442 227.658 112.923C225.016 111.405 221.825 111.174 218.992 112.297C218.025 112.68 217.059 113.319 215.127 114.598Z" fill="#27CE8B"/>
    <path d="M239 206.104C247.333 192.743 255.667 192.743 264 206.104C272.266 219.249 280.599 219.249 289 206.104C297.333 192.96 305.667 192.96 314 206.104C321.051 215.204 329.385 215.204 339 206.104C347.333 197.004 355.667 197.004 364 206.104C374.946 220.91 383.279 220.91 389 206.104C397.333 191.299 405.667 191.299 414 206.104C421.195 216.865 429.528 216.865 439 206.104" stroke="#27CE8B" stroke-width="25"/>
    <path d="M239.453 288.313C247.786 274.951 256.12 274.951 264.453 288.313C272.719 301.457 281.052 301.457 289.453 288.313C297.786 275.168 306.12 275.168 314.453 288.313C321.504 297.413 329.837 297.413 339.453 288.313C347.786 279.213 356.12 279.213 364.453 288.313C375.399 303.118 383.732 303.118 389.453 288.313C397.786 273.507 406.12 273.507 414.453 288.313C421.648 299.074 429.981 299.074 439.453 288.313" stroke="#27CE8B" stroke-width="25"/>
    <path d="M239.453 370.521C247.786 357.16 256.12 357.16 264.453 370.521C272.719 383.665 281.052 383.665 289.453 370.521C297.786 357.376 306.12 357.376 314.453 370.521C321.504 379.621 329.837 379.621 339.453 370.521C347.786 361.421 356.12 361.421 364.453 370.521C375.399 385.326 383.732 385.326 389.453 370.521C397.786 355.715 406.12 355.715 414.453 370.521C421.648 381.282 429.981 381.282 439.453 370.521" stroke="#27CE8B" stroke-width="25"/>
</svg>
