<svg width="1024" height="1024" viewBox="0 0 1024 1024" fill="none" xmlns="http://www.w3.org/2000/svg">
<rect width="1024" height="1024" fill="white"/>
<path fill-rule="evenodd" clip-rule="evenodd" d="M370.352 222C320.646 222 271.974 261.414 261.64 310.033L176.396 711.074C166.062 759.693 197.978 799.107 247.684 799.107H657.684C707.39 799.107 756.062 759.693 766.396 711.074L851.64 310.033C861.974 261.414 830.057 222 780.352 222H370.352ZM389.58 336.598L389.58 336.598L389.58 336.598C388.203 337.509 387.515 337.965 386.939 338.491C385.262 340.023 384.157 342.08 383.805 344.323C383.684 345.094 383.684 345.919 383.684 347.57V376.982C383.684 376.988 383.684 376.994 383.684 377L383.684 381.5V390.1V390.1V634.9V634.9V643.5L383.684 647C383.684 647.006 383.684 647.012 383.684 647.018V677.43C383.684 679.081 383.684 679.906 383.805 680.677C384.157 682.92 385.262 684.977 386.939 686.509C387.515 687.035 388.203 687.491 389.58 688.402C391.512 689.681 392.478 690.32 393.445 690.703C396.278 691.826 399.469 691.595 402.111 690.077C403.013 689.558 403.877 688.787 405.605 687.244L436.32 659.817L463.851 685.215C467.558 688.634 469.411 690.344 471.514 691.018C473.447 691.638 475.523 691.655 477.466 691.066C479.58 690.426 481.461 688.747 485.222 685.388L513.519 660.121L540.72 685.215C544.427 688.634 546.28 690.344 548.383 691.018C550.316 691.638 552.392 691.655 554.335 691.066C556.449 690.426 558.33 688.747 562.091 685.388L590.888 659.675L621.763 687.244C623.491 688.787 624.355 689.558 625.257 690.077C627.899 691.595 631.089 691.826 633.922 690.703C634.89 690.32 635.856 689.681 637.788 688.402C639.165 687.491 639.853 687.035 640.429 686.509C642.106 684.977 643.211 682.92 643.563 680.677C643.684 679.906 643.684 679.081 643.684 677.43V647.025C643.684 647.017 643.684 647.008 643.684 647L643.684 643.5L643.684 634.9V390.1L643.684 381.5L643.684 377C643.684 376.992 643.684 376.983 643.684 376.975V347.57C643.684 345.919 643.684 345.094 643.563 344.323C643.211 342.08 642.106 340.023 640.429 338.491C639.853 337.965 639.165 337.509 637.788 336.598L637.788 336.598C635.856 335.32 634.89 334.68 633.922 334.297C631.089 333.174 627.899 333.405 625.257 334.923C624.355 335.442 623.491 336.213 621.763 337.756L590.888 365.325L562.091 339.612L562.091 339.612L562.091 339.611C558.33 336.253 556.449 334.574 554.335 333.934C552.392 333.345 550.316 333.362 548.383 333.982C546.28 334.656 544.427 336.366 540.72 339.785L513.519 364.879L485.222 339.612C481.461 336.253 479.58 334.574 477.466 333.934C475.523 333.345 473.447 333.362 471.514 333.982C469.411 334.656 467.558 336.366 463.851 339.785L436.32 365.183L405.605 337.756C403.877 336.213 403.013 335.442 402.111 334.923C399.469 333.405 396.278 333.174 393.445 334.297C392.478 334.68 391.512 335.319 389.58 336.598Z" fill="#27CE8B"/>
<path d="M414 429.104C422.333 415.743 430.667 415.743 439 429.104C447.266 442.249 455.599 442.249 464 429.104C472.333 415.96 480.667 415.96 489 429.104C496.051 438.204 504.385 438.204 514 429.104C522.333 420.004 530.667 420.004 539 429.104C549.946 443.91 558.279 443.91 564 429.104C572.333 414.299 580.667 414.299 589 429.104C596.195 439.865 604.528 439.865 614 429.104" stroke="#27CE8B" stroke-width="10"/>
<path d="M414 483.104C422.333 469.743 430.667 469.743 439 483.104C447.266 496.249 455.599 496.249 464 483.104C472.333 469.96 480.667 469.96 489 483.104C496.051 492.204 504.385 492.204 514 483.104C522.333 474.004 530.667 474.004 539 483.104C549.946 497.91 558.279 497.91 564 483.104C572.333 468.299 580.667 468.299 589 483.104C596.195 493.865 604.528 493.865 614 483.104" stroke="#27CE8B" stroke-width="10"/>
<path d="M414 537.104C422.333 523.743 430.667 523.743 439 537.104C447.266 550.249 455.599 550.249 464 537.104C472.333 523.96 480.667 523.96 489 537.104C496.051 546.204 504.385 546.204 514 537.104C522.333 528.004 530.667 528.004 539 537.104C549.946 551.91 558.279 551.91 564 537.104C572.333 522.299 580.667 522.299 589 537.104C596.195 547.865 604.528 547.865 614 537.104" stroke="#27CE8B" stroke-width="10"/>
<path d="M414 591.104C422.333 577.743 430.667 577.743 439 591.104C447.266 604.249 455.599 604.249 464 591.104C472.333 577.96 480.667 577.96 489 591.104C496.051 600.204 504.385 600.204 514 591.104C522.333 582.004 530.667 582.004 539 591.104C549.946 605.91 558.279 605.91 564 591.104C572.333 576.299 580.667 576.299 589 591.104C596.195 601.865 604.528 601.865 614 591.104" stroke="#27CE8B" stroke-width="10"/>
</svg>
