<svg width="690" height="588" viewBox="0 0 690 588" fill="none" xmlns="http://www.w3.org/2000/svg">
<path d="M244.547 212.104C252.88 198.743 261.214 198.743 269.547 212.104C277.813 225.249 286.146 225.249 294.547 212.104C302.88 198.96 311.214 198.96 319.547 212.104C326.598 221.204 334.932 221.204 344.547 212.104C352.88 203.004 361.214 203.004 369.547 212.104C380.493 226.91 388.826 226.91 394.547 212.104C402.88 197.299 411.214 197.299 419.547 212.104C426.742 222.865 435.076 222.865 444.547 212.104M244.547 266.104C252.88 252.743 261.214 252.743 269.547 266.104C277.813 279.249 286.146 279.249 294.547 266.104C302.88 252.96 311.214 252.96 319.547 266.104C326.598 275.204 334.932 275.204 344.547 266.104C352.88 257.004 361.214 257.004 369.547 266.104C380.493 280.91 388.826 280.91 394.547 266.104C402.88 251.299 411.214 251.299 419.547 266.104C426.742 276.865 435.076 276.865 444.547 266.104M244.547 320.104C252.88 306.743 261.214 306.743 269.547 320.104C277.813 333.249 286.146 333.249 294.547 320.104C302.88 306.96 311.214 306.96 319.547 320.104C326.598 329.204 334.932 329.204 344.547 320.104C352.88 311.004 361.214 311.004 369.547 320.104C380.493 334.91 388.826 334.91 394.547 320.104C402.88 305.299 411.214 305.299 419.547 320.104C426.742 330.865 435.076 330.865 444.547 320.104M244.547 374.104C252.88 360.743 261.214 360.743 269.547 374.104C277.813 387.249 286.146 387.249 294.547 374.104C302.88 360.96 311.214 360.96 319.547 374.104C326.598 383.204 334.932 383.204 344.547 374.104C352.88 365.004 361.214 365.004 369.547 374.104C380.493 388.91 388.826 388.91 394.547 374.104C402.88 359.299 411.214 359.299 419.547 374.104C426.742 384.865 435.076 384.865 444.547 374.104M92.1869 93.0333C102.521 44.4138 151.193 5 200.899 5H610.899C660.605 5 692.521 44.4138 682.187 93.0333L596.943 494.074C586.609 542.693 537.937 582.107 488.231 582.107H78.231C28.5254 582.107 -3.39128 542.693 6.9431 494.074L92.1869 93.0333ZM220.127 119.598C218.75 120.509 218.062 120.965 217.486 121.491C215.809 123.023 214.704 125.08 214.352 127.323C214.231 128.094 214.231 128.919 214.231 130.57V159.982C214.231 159.988 214.231 159.994 214.231 160V430C214.231 430.006 214.231 430.012 214.231 430.018V460.43C214.231 462.081 214.231 462.906 214.352 463.677C214.704 465.92 215.809 467.977 217.486 469.509C218.062 470.035 218.75 470.491 220.127 471.402C222.059 472.681 223.025 473.32 223.992 473.703C226.825 474.826 230.016 474.595 232.658 473.077C233.56 472.558 234.424 471.787 236.152 470.244L266.868 442.817L294.398 468.215C298.105 471.634 299.958 473.344 302.061 474.018C303.995 474.638 306.07 474.655 308.013 474.066C310.128 473.426 312.008 471.747 315.77 468.388L344.066 443.121L371.267 468.215C374.974 471.634 376.827 473.344 378.93 474.018C380.863 474.638 382.939 474.655 384.882 474.066C386.996 473.426 388.877 471.747 392.639 468.388L421.435 442.675L452.31 470.244C454.038 471.787 454.902 472.558 455.804 473.077C458.446 474.595 461.636 474.826 464.47 473.703C465.437 473.32 466.403 472.681 468.335 471.402C469.712 470.491 470.4 470.035 470.976 469.509C472.653 467.977 473.758 465.92 474.11 463.677C474.231 462.906 474.231 462.081 474.231 460.43V130.57C474.231 128.919 474.231 128.094 474.11 127.323C473.758 125.08 472.653 123.023 470.976 121.491C470.4 120.965 469.712 120.509 468.335 119.598C466.403 118.32 465.437 117.68 464.47 117.297C461.636 116.174 458.446 116.405 455.804 117.923C454.902 118.442 454.038 119.213 452.31 120.756L421.435 148.325L392.639 122.612C388.877 119.253 386.996 117.574 384.882 116.934C382.939 116.345 380.863 116.362 378.93 116.982C376.827 117.656 374.974 119.366 371.267 122.785L344.066 147.879L315.77 122.612C312.008 119.253 310.128 117.574 308.013 116.934C306.07 116.345 303.995 116.362 302.061 116.982C299.958 117.656 298.105 119.366 294.398 122.785L266.868 148.183L236.152 120.756C234.424 119.213 233.56 118.442 232.658 117.923C230.016 116.405 226.825 116.174 223.992 117.297C223.025 117.68 222.059 118.32 220.127 119.598Z" stroke="#27CE8B" stroke-width="10"/>
</svg>
